<mxfile host="app.diagrams.net" modified="2020-04-30T13:57:08.554Z" agent="Mozilla/5.0 (Windows NT 10.0; Win64; x64) AppleWebKit/537.36 (KHTML, like Gecko) Chrome/81.0.4044.122 Safari/537.36" etag="lkZUvnCNhbHqt_uaEL7q" version="12.8.8" type="github">
  <diagram id="64O0Q8jD7qAvgHejbL_g" name="Page-1">
    <mxGraphModel dx="782" dy="469" grid="1" gridSize="10" guides="1" tooltips="1" connect="1" arrows="1" fold="1" page="1" pageScale="1" pageWidth="827" pageHeight="1169" math="0" shadow="0">
      <root>
        <mxCell id="0" />
        <mxCell id="1" parent="0" />
        <mxCell id="_Fk9cfmFV3eR6eFFAxcH-5" value="&amp;laquo;interface&amp;raquo;&lt;br&gt;&lt;b&gt;Name&lt;/b&gt;" style="html=1;" vertex="1" parent="1">
          <mxGeometry x="30" y="40" width="110" height="50" as="geometry" />
        </mxCell>
        <mxCell id="_Fk9cfmFV3eR6eFFAxcH-1" value="MainActivity" style="swimlane;fontStyle=1;align=center;verticalAlign=top;childLayout=stackLayout;horizontal=1;startSize=26;horizontalStack=0;resizeParent=1;resizeParentMax=0;resizeLast=0;collapsible=1;marginBottom=0;" vertex="1" parent="1">
          <mxGeometry x="310" y="60" width="280" height="420" as="geometry" />
        </mxCell>
        <mxCell id="_Fk9cfmFV3eR6eFFAxcH-2" value="+ textView: TextView" style="text;strokeColor=none;fillColor=none;align=left;verticalAlign=top;spacingLeft=4;spacingRight=4;overflow=hidden;rotatable=0;points=[[0,0.5],[1,0.5]];portConstraint=eastwest;" vertex="1" parent="_Fk9cfmFV3eR6eFFAxcH-1">
          <mxGeometry y="26" width="280" height="26" as="geometry" />
        </mxCell>
        <mxCell id="_Fk9cfmFV3eR6eFFAxcH-7" value="+ iv_11, iv_12, iv_13, iv_21, iv_22, iv_23&#xa;iv_31, iv_32, iv_33, iv_41,iv_42,iv_43: ImageView" style="text;strokeColor=none;fillColor=none;align=left;verticalAlign=top;spacingLeft=4;spacingRight=4;overflow=hidden;rotatable=0;points=[[0,0.5],[1,0.5]];portConstraint=eastwest;" vertex="1" parent="_Fk9cfmFV3eR6eFFAxcH-1">
          <mxGeometry y="52" width="280" height="38" as="geometry" />
        </mxCell>
        <mxCell id="_Fk9cfmFV3eR6eFFAxcH-9" value="+ cardsArray: Integer[]" style="text;strokeColor=none;fillColor=none;align=left;verticalAlign=top;spacingLeft=4;spacingRight=4;overflow=hidden;rotatable=0;points=[[0,0.5],[1,0.5]];portConstraint=eastwest;" vertex="1" parent="_Fk9cfmFV3eR6eFFAxcH-1">
          <mxGeometry y="90" width="280" height="26" as="geometry" />
        </mxCell>
        <mxCell id="_Fk9cfmFV3eR6eFFAxcH-10" value="+ image101, image102, image103, image104&#xa;image105, image106, image201, image202,&#xa;image203, image204, image205, image206: int" style="text;strokeColor=none;fillColor=none;align=left;verticalAlign=top;spacingLeft=4;spacingRight=4;overflow=hidden;rotatable=0;points=[[0,0.5],[1,0.5]];portConstraint=eastwest;" vertex="1" parent="_Fk9cfmFV3eR6eFFAxcH-1">
          <mxGeometry y="116" width="280" height="54" as="geometry" />
        </mxCell>
        <mxCell id="_Fk9cfmFV3eR6eFFAxcH-8" value="+ firstCard, secondCard: int" style="text;strokeColor=none;fillColor=none;align=left;verticalAlign=top;spacingLeft=4;spacingRight=4;overflow=hidden;rotatable=0;points=[[0,0.5],[1,0.5]];portConstraint=eastwest;" vertex="1" parent="_Fk9cfmFV3eR6eFFAxcH-1">
          <mxGeometry y="170" width="280" height="26" as="geometry" />
        </mxCell>
        <mxCell id="_Fk9cfmFV3eR6eFFAxcH-11" value="+ clickedFirst, clickedSecond: int" style="text;strokeColor=none;fillColor=none;align=left;verticalAlign=top;spacingLeft=4;spacingRight=4;overflow=hidden;rotatable=0;points=[[0,0.5],[1,0.5]];portConstraint=eastwest;" vertex="1" parent="_Fk9cfmFV3eR6eFFAxcH-1">
          <mxGeometry y="196" width="280" height="26" as="geometry" />
        </mxCell>
        <mxCell id="_Fk9cfmFV3eR6eFFAxcH-13" value="+ cardNumber: int" style="text;strokeColor=none;fillColor=none;align=left;verticalAlign=top;spacingLeft=4;spacingRight=4;overflow=hidden;rotatable=0;points=[[0,0.5],[1,0.5]];portConstraint=eastwest;" vertex="1" parent="_Fk9cfmFV3eR6eFFAxcH-1">
          <mxGeometry y="222" width="280" height="26" as="geometry" />
        </mxCell>
        <mxCell id="_Fk9cfmFV3eR6eFFAxcH-12" value="+ playerPoints: int" style="text;strokeColor=none;fillColor=none;align=left;verticalAlign=top;spacingLeft=4;spacingRight=4;overflow=hidden;rotatable=0;points=[[0,0.5],[1,0.5]];portConstraint=eastwest;" vertex="1" parent="_Fk9cfmFV3eR6eFFAxcH-1">
          <mxGeometry y="248" width="280" height="26" as="geometry" />
        </mxCell>
        <mxCell id="_Fk9cfmFV3eR6eFFAxcH-3" value="" style="line;strokeWidth=1;fillColor=none;align=left;verticalAlign=middle;spacingTop=-1;spacingLeft=3;spacingRight=3;rotatable=0;labelPosition=right;points=[];portConstraint=eastwest;" vertex="1" parent="_Fk9cfmFV3eR6eFFAxcH-1">
          <mxGeometry y="274" width="280" height="8" as="geometry" />
        </mxCell>
        <mxCell id="_Fk9cfmFV3eR6eFFAxcH-6" value="# onCreate(Bundle): void" style="text;strokeColor=none;fillColor=none;align=left;verticalAlign=top;spacingLeft=4;spacingRight=4;overflow=hidden;rotatable=0;points=[[0,0.5],[1,0.5]];portConstraint=eastwest;" vertex="1" parent="_Fk9cfmFV3eR6eFFAxcH-1">
          <mxGeometry y="282" width="280" height="26" as="geometry" />
        </mxCell>
        <mxCell id="_Fk9cfmFV3eR6eFFAxcH-16" value="+ frontsOfCardsResource(): void" style="text;strokeColor=none;fillColor=none;align=left;verticalAlign=top;spacingLeft=4;spacingRight=4;overflow=hidden;rotatable=0;points=[[0,0.5],[1,0.5]];portConstraint=eastwest;" vertex="1" parent="_Fk9cfmFV3eR6eFFAxcH-1">
          <mxGeometry y="308" width="280" height="26" as="geometry" />
        </mxCell>
        <mxCell id="_Fk9cfmFV3eR6eFFAxcH-15" value="+ doStuff(ImageView): void" style="text;strokeColor=none;fillColor=none;align=left;verticalAlign=top;spacingLeft=4;spacingRight=4;overflow=hidden;rotatable=0;points=[[0,0.5],[1,0.5]];portConstraint=eastwest;" vertex="1" parent="_Fk9cfmFV3eR6eFFAxcH-1">
          <mxGeometry y="334" width="280" height="26" as="geometry" />
        </mxCell>
        <mxCell id="_Fk9cfmFV3eR6eFFAxcH-14" value="+ calculate(): void" style="text;strokeColor=none;fillColor=none;align=left;verticalAlign=top;spacingLeft=4;spacingRight=4;overflow=hidden;rotatable=0;points=[[0,0.5],[1,0.5]];portConstraint=eastwest;" vertex="1" parent="_Fk9cfmFV3eR6eFFAxcH-1">
          <mxGeometry y="360" width="280" height="26" as="geometry" />
        </mxCell>
        <mxCell id="_Fk9cfmFV3eR6eFFAxcH-4" value="+ checkEnd(): void" style="text;strokeColor=none;fillColor=none;align=left;verticalAlign=top;spacingLeft=4;spacingRight=4;overflow=hidden;rotatable=0;points=[[0,0.5],[1,0.5]];portConstraint=eastwest;" vertex="1" parent="_Fk9cfmFV3eR6eFFAxcH-1">
          <mxGeometry y="386" width="280" height="34" as="geometry" />
        </mxCell>
      </root>
    </mxGraphModel>
  </diagram>
</mxfile>
